# xmcd
#
# Track frame offsets:
#	150
#	30693
#	53116
#	74702
#	101411
#	127166
#	144826
#	170799
#	191376
#	221772
#	241996
#	268813
#	290368
#
# Disc length: 4078 seconds
#
# Revision: 0
# Processed by: cddbd v1.5.2PL0 Copyright (c) Steve Scherf et al.
# Submitted via: dBpowerAMP V4.0
#
DISCID=cd0fec0d
DTITLE=jorge - Seu Jorge
DYEAR=2010
DGENRE=Alternative
TTITLE0=faixa 1
TTITLE1=faixa 2
TTITLE2=faixa 3
TTITLE3=faixa 4
TTITLE4=faixa 5
TTITLE5=faixa 6
TTITLE6=faixa 7
TTITLE7=faixa 8
TTITLE8=faixa 9
TTITLE9=faixa 10
TTITLE10=faixa 11
TTITLE11=faixa 12
TTITLE12=faixa 13
EXTD=
EXTT0=
EXTT1=
EXTT2=
EXTT3=
EXTT4=
EXTT5=
EXTT6=
EXTT7=
EXTT8=
EXTT9=
EXTT10=
EXTT11=
EXTT12=
PLAYORDER=
